<?xml version="1.0" encoding="utf-8"?>
<!-- Generated by IcoMoon.io -->
<!DOCTYPE svg PUBLIC "-//W3C//DTD SVG 1.1//EN" "http://www.w3.org/Graphics/SVG/1.1/DTD/svg11.dtd">
<svg version="1.1" xmlns="http://www.w3.org/2000/svg" xmlns:xlink="http://www.w3.org/1999/xlink" width="38" height="32" viewBox="0 0 38 32">
<path d="M37.357 32h-36.548c-0.445 0-0.809-0.364-0.809-0.809s0.364-0.809 0.809-0.809h36.548c0.445 0 0.809 0.364 0.809 0.809s-0.354 0.809-0.809 0.809zM35.881 28.321c-0.445 0-0.809-0.364-0.809-0.809v-17.87h-5.448c-0.445 0-0.809-0.364-0.809-0.809s0.364-0.809 0.809-0.809h6.256c0.445 0 0.809 0.364 0.809 0.809 0 0.010 0 0.010 0 0.020v18.658c0 0.445-0.364 0.809-0.809 0.809zM28.867 28.321c-0.445 0-0.809-0.364-0.809-0.809v-9.137c0-0.445 0.364-0.809 0.809-0.809s0.809 0.364 0.809 0.809v9.137c0 0.445-0.364 0.809-0.809 0.809zM22.347 28.321c-0.445 0-0.809-0.364-0.809-0.809v-9.137c0-0.445 0.364-0.809 0.809-0.809s0.809 0.364 0.809 0.809v9.137c0 0.445-0.364 0.809-0.809 0.809zM15.828 28.321c-0.445 0-0.809-0.364-0.809-0.809v-9.137c0-0.445 0.364-0.809 0.809-0.809s0.809 0.364 0.809 0.809v9.137c0 0.445-0.364 0.809-0.809 0.809zM9.309 28.321c-0.445 0-0.809-0.364-0.809-0.809v-9.137c0-0.445 0.364-0.809 0.809-0.809s0.809 0.364 0.809 0.809v9.137c0 0.445-0.364 0.809-0.809 0.809zM2.294 28.321c-0.445 0-0.809-0.364-0.809-0.809v-18.658c0-0.010 0-0.020 0-0.020 0-0.445 0.364-0.809 0.809-0.809h6.256c0.445 0 0.809 0.364 0.809 0.809s-0.364 0.809-0.809 0.809h-5.448v17.87c0 0.445-0.364 0.809-0.809 0.809zM32.445 20.75c-0.445 0-0.809-0.364-0.809-0.809v-1.577c0-0.445 0.364-0.809 0.809-0.809s0.809 0.364 0.809 0.809v1.577c0 0.455-0.354 0.809-0.809 0.809zM5.721 20.75c-0.445 0-0.809-0.364-0.809-0.809v-1.577c0-0.445 0.364-0.809 0.809-0.809s0.809 0.364 0.809 0.809v1.577c0 0.455-0.364 0.809-0.809 0.809zM32.445 15.828c-0.445 0-0.809-0.364-0.809-0.809v-1.577c0-0.445 0.364-0.809 0.809-0.809s0.809 0.364 0.809 0.809v1.577c0 0.445-0.354 0.809-0.809 0.809zM5.721 15.828c-0.445 0-0.809-0.364-0.809-0.809v-1.577c0-0.445 0.364-0.809 0.809-0.809s0.809 0.364 0.809 0.809v1.577c0 0.445-0.364 0.809-0.809 0.809zM28.867 15.828h-19.558c-0.445 0-0.809-0.364-0.809-0.809s0.364-0.809 0.809-0.809h19.558c0.445 0 0.809 0.364 0.809 0.809s-0.364 0.809-0.809 0.809zM28.867 13.069c-0.121 0-0.243-0.030-0.354-0.081l-9.511-4.71-9.329 4.71c-0.394 0.202-0.889 0.040-1.082-0.354-0.202-0.394-0.040-0.889 0.354-1.082l9.339-4.71v-6.034c0-0.445 0.364-0.809 0.809-0.809h5.842c0.445 0 0.809 0.364 0.809 0.809v3.052c0 0.445-0.364 0.809-0.809 0.809h-5.033v2.244l9.329 4.619c0.404 0.202 0.566 0.687 0.364 1.082-0.152 0.293-0.435 0.455-0.728 0.455zM19.891 3.052h4.225v-1.435h-4.225v1.435z"></path>
</svg>
