<?xml version="1.0" encoding="utf-8"?>
<!-- Generated by IcoMoon.io -->
<!DOCTYPE svg PUBLIC "-//W3C//DTD SVG 1.1//EN" "http://www.w3.org/Graphics/SVG/1.1/DTD/svg11.dtd">
<svg version="1.1" xmlns="http://www.w3.org/2000/svg" xmlns:xlink="http://www.w3.org/1999/xlink" width="26" height="32" viewBox="0 0 26 32">
<path d="M15.994 3.388h-2.325v-1.986h2.512c0.386 0 0.701-0.315 0.701-0.701s-0.315-0.701-0.701-0.701h-6.437c-0.386 0-0.701 0.315-0.701 0.701s0.315 0.701 0.701 0.701h2.512v1.986h-2.325c-5.479 0-9.931 4.451-9.931 9.931v9.627c0 3.108 2.535 5.643 5.643 5.643h2.068c-1.238 0.794-2.372 1.495-3.447 2.103-0.339 0.187-0.456 0.619-0.257 0.958 0.128 0.222 0.362 0.351 0.608 0.351 0.117 0 0.234-0.035 0.351-0.093 1.589-0.911 3.33-1.998 5.304-3.318h5.409c1.974 1.32 3.715 2.418 5.304 3.318 0.105 0.058 0.234 0.093 0.351 0.093 0.245 0 0.479-0.128 0.608-0.351 0.187-0.339 0.070-0.759-0.257-0.958-1.063-0.608-2.208-1.308-3.447-2.103h2.068c3.108 0 5.643-2.535 5.643-5.643v-9.627c-0.023-5.479-4.486-9.931-9.954-9.931zM24.523 22.946c0 2.337-1.904 4.241-4.241 4.241h-14.639c-2.337 0-4.241-1.904-4.241-4.241v-9.627c0-4.708 3.832-8.529 8.529-8.529h6.052c4.708 0 8.529 3.832 8.529 8.529v9.627z"></path>
<path d="M18.857 9.463h-11.8c-1.741 0-3.154 1.414-3.154 3.154v5.842c0 0.386 0.315 0.701 0.701 0.701h16.707c0.386 0 0.701-0.315 0.701-0.701v-5.842c0-1.741-1.414-3.154-3.154-3.154zM20.609 17.758h-15.305v-5.141c0-0.97 0.783-1.752 1.752-1.752h11.8c0.97 0 1.752 0.783 1.752 1.752v5.141z"></path>
<path d="M7.127 24.71c0 0.723-0.586 1.308-1.308 1.308s-1.309-0.586-1.309-1.308c0-0.723 0.586-1.308 1.309-1.308s1.309 0.586 1.309 1.308z"></path>
<path d="M21.322 24.71c0 0.723-0.586 1.308-1.308 1.308s-1.308-0.586-1.308-1.308c0-0.723 0.586-1.308 1.308-1.308s1.308 0.586 1.308 1.308z"></path>
<path d="M10.153 7.828h5.62c0.386 0 0.701-0.315 0.701-0.701s-0.315-0.701-0.701-0.701h-5.62c-0.386 0-0.701 0.315-0.701 0.701s0.315 0.701 0.701 0.701z"></path>
</svg>
