<?xml version="1.0" encoding="utf-8"?>
<!-- Generated by IcoMoon.io -->
<!DOCTYPE svg PUBLIC "-//W3C//DTD SVG 1.1//EN" "http://www.w3.org/Graphics/SVG/1.1/DTD/svg11.dtd">
<svg version="1.1" xmlns="http://www.w3.org/2000/svg" xmlns:xlink="http://www.w3.org/1999/xlink" width="37" height="32" viewBox="0 0 37 32">
<path d="M0.885 32c-0.111 0-0.221-0.022-0.332-0.066-0.454-0.188-0.675-0.697-0.487-1.15l2.4-5.929c1.062-2.622 2.964-6.095 7.223-6.095h3.186c2.29 0 4.181 1.018 5.608 3.031 0.022 0.033 0.133 0.177 0.265 0.365 0.454 0.619 0.586 0.796 0.619 0.852 0.265 0.409 0.155 0.951-0.243 1.228-0.409 0.265-0.951 0.155-1.228-0.243-0.044-0.066-0.398-0.542-0.575-0.796-0.144-0.188-0.254-0.354-0.277-0.387-0.686-0.973-1.46-1.626-2.367-1.969l-2.677 3.661c-0.166 0.232-0.431 0.365-0.719 0.365s-0.553-0.133-0.719-0.365l-2.677-3.661c-1.549 0.597-2.732 2.091-3.783 4.679l-2.4 5.929c-0.133 0.354-0.465 0.553-0.819 0.553zM9.855 20.53l1.427 1.958 1.427-1.958h-2.854zM36.048 32h-31.126c-0.487 0-0.885-0.398-0.885-0.885s0.398-0.885 0.885-0.885h31.126c0.487 0 0.885 0.398 0.885 0.885s-0.398 0.885-0.885 0.885zM34.389 28.261h-6.814c-0.487 0-0.885-0.398-0.885-0.885s0.398-0.885 0.885-0.885h6.814c0.431 0 0.774-0.343 0.774-0.774s-0.343-0.774-0.774-0.774h-6.814c-0.487 0-0.885-0.398-0.885-0.885s0.398-0.885 0.885-0.885h6.814c1.405 0 2.544 1.139 2.544 2.544s-1.139 2.544-2.544 2.544zM17.764 28.073c0 0 0 0 0 0-0.111 0-0.221-0.022-0.332-0.066-0.055-0.022-0.1-0.044-0.144-0.077-0.885-0.531-2.467-1.051-3.031-0.243-0.277 0.398-0.83 0.498-1.228 0.221s-0.498-0.83-0.221-1.228c1.095-1.571 3.241-1.372 4.966-0.509 1.714-0.874 3.871-1.062 4.966 0.509 0.277 0.398 0.177 0.951-0.221 1.228s-0.951 0.177-1.228-0.221c-0.575-0.819-2.157-0.288-3.031 0.243-0.044 0.033-0.1 0.055-0.144 0.077-0.133 0.044-0.243 0.066-0.354 0.066zM11.282 17.189c-2.655 0-4.812-2.157-4.812-4.812 0-2.179 1.46-4.037 3.462-4.612 0.011 0 0.022-0.011 0.033-0.011 0.221-0.066 0.431-0.111 0.664-0.133 0.21-0.033 0.42-0.044 0.642-0.044 0 0 0.011 0 0.011 0s0 0 0 0 0 0 0.011 0c0 0 0 0 0 0s0 0 0 0c2.422 0 4.447 1.781 4.756 4.17 0.033 0.21 0.044 0.42 0.044 0.642 0 2.644-2.157 4.801-4.812 4.801zM9.59 9.855c-0.807 0.542-1.349 1.471-1.349 2.522 0 1.681 1.361 3.042 3.042 3.042 1.46 0 2.677-1.029 2.975-2.4-0.044 0-0.1 0-0.144 0-2.079 0.011-3.849-1.294-4.524-3.163zM11.293 9.347c0.442 1.128 1.549 1.914 2.821 1.914-0.454-1.117-1.549-1.914-2.821-1.914 0 0 0 0 0 0s0 0 0 0zM19.368 15.021c-0.155 0-0.31-0.044-0.442-0.122-0.277-0.155-0.442-0.454-0.442-0.763v-10.674c0-1.914 1.549-3.462 3.462-3.462h11.526c1.914 0 3.462 1.549 3.462 3.462v6.194c0 1.914-1.549 3.462-3.462 3.462h-10.475l-3.197 1.792c-0.133 0.077-0.277 0.111-0.431 0.111zM21.945 1.77c-0.929 0-1.692 0.763-1.692 1.692v9.159l2.079-1.161c0.133-0.077 0.277-0.111 0.431-0.111h10.707c0.929 0 1.692-0.763 1.692-1.692v-6.194c0-0.929-0.763-1.692-1.692-1.692h-11.526zM30.839 9.225h-7.079c-0.487 0-0.885-0.398-0.885-0.885s0.398-0.885 0.885-0.885h7.079c0.487 0 0.885 0.398 0.885 0.885s-0.387 0.885-0.885 0.885zM28.66 5.663h-4.889c-0.487 0-0.885-0.398-0.885-0.885s0.398-0.885 0.885-0.885h4.889c0.487 0 0.885 0.398 0.885 0.885s-0.398 0.885-0.885 0.885z"></path>
</svg>
