<?xml version="1.0" encoding="utf-8"?>
<!-- Generated by IcoMoon.io -->
<!DOCTYPE svg PUBLIC "-//W3C//DTD SVG 1.1//EN" "http://www.w3.org/Graphics/SVG/1.1/DTD/svg11.dtd">
<svg version="1.1" xmlns="http://www.w3.org/2000/svg" xmlns:xlink="http://www.w3.org/1999/xlink" width="44" height="32" viewBox="0 0 44 32">
<path d="M43.51 30.567h-4.633v-6.276c1.739-0.315 3.057-1.777 3.057-3.515 0-0.879-0.353-3.076-0.927-5.091-0.822-2.885-1.719-4.222-2.847-4.222s-2.035 1.347-2.847 4.222c-0.573 2.006-0.927 4.203-0.927 5.091 0 1.738 1.318 3.2 3.057 3.515v6.276h-4.681v-17.786c0.888-0.296 1.528-1.137 1.528-2.13v-3.057c0-0.392-0.325-0.716-0.716-0.716h-0.812v-0.86h1.576c0.392 0 0.716-0.325 0.716-0.716s-0.325-0.716-0.716-0.716h-4.585c-0.392 0-0.716 0.325-0.716 0.716s0.325 0.716 0.716 0.716h1.576v0.86h-0.812c-0.392 0-0.716 0.325-0.716 0.716v3.057c0 0.984 0.64 1.824 1.528 2.13v17.786h-2.503l-0.487-2.388h0.65c0.392 0 0.716-0.325 0.716-0.716s-0.325-0.716-0.716-0.716h-1.519c0 0-0.010 0-0.010 0h-0.048v-1.624h0.812c0.392 0 0.716-0.325 0.716-0.716s-0.325-0.716-0.716-0.716h-0.812v-0.86h0.812c0.392 0 0.716-0.325 0.716-0.716s-0.325-0.716-0.716-0.716h-13.755c-0.392 0-0.716 0.325-0.716 0.716s0.325 0.716 0.716 0.716h0.812v0.86h-0.812c-0.392 0-0.716 0.325-0.716 0.716s0.325 0.716 0.716 0.716h0.812v1.624h-0.048c0 0-0.010 0-0.010 0h-1.519c-0.392 0-0.716 0.325-0.716 0.716s0.325 0.716 0.716 0.716h0.65l-0.487 2.388h-5.559v-7.021c3.009-0.353 5.349-2.923 5.349-6.018 0-5.378-5.196-16.64-5.416-17.118-0.115-0.248-0.373-0.411-0.65-0.411s-0.535 0.162-0.65 0.411c-0.22 0.478-5.416 11.74-5.416 17.118 0 3.104 2.34 5.664 5.349 6.018v7.021h-6.161c-0.392 0-0.716 0.325-0.716 0.716s0.325 0.716 0.716 0.716h42.794c0.392 0 0.716-0.325 0.716-0.716s-0.325-0.716-0.716-0.716zM35.821 20.776c0-0.64 0.277-2.55 0.812-4.48 0.764-2.808 1.414-3.315 1.528-3.391 0.124 0.076 0.764 0.592 1.528 3.391 0.525 1.93 0.812 3.84 0.812 4.48 0 0.955-0.678 1.767-1.624 2.044v-1.471c0-0.392-0.325-0.716-0.716-0.716s-0.716 0.325-0.716 0.716v1.471c-0.946-0.277-1.624-1.089-1.624-2.044zM31.236 8.31h1.624v2.34c0 0.449-0.363 0.812-0.812 0.812s-0.812-0.363-0.812-0.812v-2.34zM2.961 17.528c0-3.974 3.219-11.807 4.633-15.054 1.414 3.238 4.633 11.081 4.633 15.054 0 2.312-1.7 4.232-3.916 4.576v-2.283c0 0 0 0 0 0v-1.996l2.082-2.082c0.277-0.277 0.277-0.736 0-1.013s-0.736-0.277-1.013 0l-1.070 1.070v-1.328c0-0.392-0.325-0.716-0.716-0.716s-0.716 0.325-0.716 0.716v3.057c0 0 0 0 0 0v0.564l-1.070-1.070c-0.277-0.277-0.736-0.277-1.013 0s-0.277 0.736 0 1.013l2.082 2.082v1.987c-2.216-0.344-3.916-2.264-3.916-4.576zM16.716 22.83h9.266v0.86h-9.266v-0.86zM16.716 25.122h9.266v1.624h-9.266v-1.624zM15.819 28.179h11.062l0.487 2.388h-12.036l0.487-2.388z"></path>
</svg>
