<?xml version="1.0" encoding="utf-8"?>
<!-- Generated by IcoMoon.io -->
<!DOCTYPE svg PUBLIC "-//W3C//DTD SVG 1.1//EN" "http://www.w3.org/Graphics/SVG/1.1/DTD/svg11.dtd">
<svg version="1.1" xmlns="http://www.w3.org/2000/svg" xmlns:xlink="http://www.w3.org/1999/xlink" width="32" height="32" viewBox="0 0 32 32">
<path d="M31.368 29.286c0.399 0 0.729-0.331 0.729-0.729v-27.827c0-0.311-0.195-0.584-0.486-0.691s-0.613-0.019-0.807 0.224l-25.376 30.541c-0.185 0.214-0.224 0.515-0.097 0.778s0.379 0.418 0.661 0.418h25.376c0.399 0 0.729-0.331 0.729-0.729s-0.331-0.729-0.729-0.729h-23.82l23.091-27.788v25.804c0 0.399 0.331 0.729 0.729 0.729z"></path>
<path d="M25.765 13.977l-9.298 11.185c-0.185 0.214-0.224 0.515-0.097 0.778s0.379 0.418 0.661 0.418h9.298c0.399 0 0.729-0.331 0.729-0.729v-11.185c0-0.311-0.195-0.584-0.486-0.691-0.292-0.097-0.613-0.010-0.807 0.224zM25.6 24.909h-7.013l7.013-8.443v8.443z"></path>
<path d="M6.108 23.733l11.127-13.977c0 0 0 0 0 0 0-0.010 0.010-0.010 0.010-0.019 0.019-0.019 0.029-0.049 0.049-0.068 0-0.010 0.010-0.010 0.010-0.019 0.019-0.029 0.029-0.058 0.039-0.097 0 0 0 0 0 0l2.791-7.84c0.107-0.292 0.010-0.623-0.233-0.817s-0.584-0.214-0.846-0.049l-7.003 4.464c0 0-0.010 0.010-0.010 0.010-0.010 0.010-0.019 0.010-0.029 0.019s-0.019 0.010-0.029 0.019c-0.010 0.010-0.019 0.010-0.029 0.019s-0.019 0.019-0.029 0.029c-0.010 0.010-0.010 0.010-0.019 0.019s-0.019 0.019-0.029 0.029c0 0 0 0-0.010 0.010l-7.849 9.94c-0.253 0.311-0.195 0.778 0.117 1.021 0.311 0.253 0.778 0.195 1.021-0.117l7.402-9.357 3.083 2.451-8.472 10.66-3.657-2.908c-0.311-0.253-0.778-0.195-1.021 0.117l-1.751 2.188c-0.564 0.71-0.817 1.595-0.72 2.5 0.107 0.905 0.554 1.712 1.264 2.276l0.039 0.029c0.603 0.477 1.352 0.739 2.12 0.739 1.041 0.010 2.013-0.457 2.665-1.274zM13.695 6.001l1.060-0.681 0.729 0.584c0.136 0.107 0.292 0.156 0.457 0.156 0.214 0 0.428-0.097 0.574-0.272 0.253-0.311 0.195-0.778-0.117-1.021l-0.34-0.272 1.994-1.264-1.731 4.863-2.626-2.091zM3.443 23.557c-0.447 0-0.866-0.146-1.206-0.428l-0.039-0.029c-0.409-0.321-0.661-0.788-0.72-1.303s0.088-1.021 0.409-1.43l1.294-1.624 3.074 2.461-1.294 1.624c-0.37 0.467-0.924 0.729-1.517 0.729z"></path>
<path d="M7.587 17.099c0.214 0 0.428-0.097 0.574-0.272l4.766-5.992c0.253-0.311 0.195-0.778-0.117-1.021-0.311-0.253-0.778-0.195-1.021 0.117l-4.766 5.992c-0.253 0.311-0.195 0.778 0.117 1.021 0.126 0.107 0.282 0.156 0.447 0.156z"></path>
</svg>
