<?xml version="1.0" encoding="utf-8"?>
<!-- Generated by IcoMoon.io -->
<!DOCTYPE svg PUBLIC "-//W3C//DTD SVG 1.1//EN" "http://www.w3.org/Graphics/SVG/1.1/DTD/svg11.dtd">
<svg version="1.1" xmlns="http://www.w3.org/2000/svg" xmlns:xlink="http://www.w3.org/1999/xlink" width="33" height="32" viewBox="0 0 33 32">
<path d="M11.159 32c-0.076 0-0.163-0.011-0.239-0.033-5.178-1.455-8.814-4.787-9.27-8.467l-1.639-13.493c-0.033-0.25 0.043-0.499 0.217-0.684 0.163-0.185 0.402-0.293 0.651-0.293h20.581c0.25 0 0.488 0.109 0.651 0.293s0.239 0.434 0.206 0.684l-1.65 13.493c-0.456 3.68-4.092 7.001-9.27 8.467-0.076 0.022-0.152 0.033-0.239 0.033zM1.845 10.768l1.531 12.526c0.358 2.931 3.398 5.634 7.783 6.936 4.374-1.303 7.425-4.005 7.783-6.936l1.531-12.526h-18.627zM11.159 27.104c-0.076 0-0.163-0.011-0.239-0.033-2.942-0.836-5.015-2.757-5.275-4.896l-0.217-1.813c-0.033-0.25 0.043-0.499 0.206-0.684s0.402-0.293 0.651-0.293h9.748c0.25 0 0.488 0.109 0.651 0.293s0.239 0.434 0.206 0.684l-0.217 1.813c-0.261 2.138-2.334 4.071-5.275 4.896-0.076 0.022-0.152 0.033-0.239 0.033zM7.262 21.123l0.098 0.836c0.174 1.379 1.683 2.703 3.788 3.365 2.117-0.662 3.626-1.986 3.788-3.365l0.098-0.836h-7.772zM25.085 21.916c-0.326 0-0.63-0.185-0.782-0.488-0.206-0.434-0.022-0.955 0.412-1.161 3.072-1.465 5.069-3.712 5.351-6.003l1.531-12.526h-18.627l0.651 5.275c0.054 0.478-0.282 0.912-0.76 0.966s-0.912-0.282-0.966-0.76l-0.771-6.242c-0.033-0.25 0.043-0.499 0.206-0.684s0.402-0.293 0.651-0.293h20.581c0.25 0 0.488 0.109 0.651 0.293s0.239 0.434 0.206 0.684l-1.65 13.493c-0.358 2.92-2.659 5.612-6.328 7.36-0.109 0.065-0.239 0.087-0.358 0.087zM24.087 17.357c-0.315 0-0.619-0.174-0.771-0.467-0.228-0.423-0.065-0.944 0.358-1.172 1.4-0.738 2.269-1.758 2.399-2.79l0.098-0.836h-1.607c-0.478 0-0.868-0.391-0.868-0.868s0.391-0.868 0.868-0.868h2.594c0.25 0 0.488 0.109 0.651 0.293s0.239 0.434 0.206 0.684l-0.217 1.813c-0.195 1.607-1.4 3.115-3.311 4.114-0.13 0.065-0.271 0.098-0.402 0.098zM16.532 16.087c-0.043 0-0.076 0-0.119-0.011l-2.942-0.402c-0.478-0.065-0.803-0.499-0.738-0.977s0.499-0.803 0.977-0.738l2.942 0.402c0.478 0.065 0.803 0.499 0.738 0.977-0.054 0.434-0.434 0.749-0.858 0.749zM5.786 16.087c-0.423 0-0.803-0.315-0.858-0.749-0.065-0.478 0.271-0.912 0.738-0.977l2.942-0.402c0.478-0.065 0.912 0.271 0.977 0.738 0.065 0.478-0.271 0.912-0.738 0.977l-2.942 0.402c-0.033 0.011-0.076 0.011-0.119 0.011zM16.912 7.056c-0.423 0-0.803-0.315-0.858-0.749-0.065-0.478 0.271-0.912 0.738-0.977l2.942-0.402c0.478-0.065 0.912 0.271 0.977 0.738s-0.271 0.912-0.738 0.977l-2.942 0.402c-0.043 0.011-0.076 0.011-0.119 0.011zM27.658 7.056c-0.043 0-0.076 0-0.119-0.011l-2.942-0.402c-0.478-0.065-0.803-0.499-0.738-0.977s0.499-0.803 0.977-0.738l2.942 0.402c0.478 0.065 0.803 0.499 0.738 0.977-0.065 0.434-0.434 0.749-0.858 0.749z"></path>
</svg>
