<?xml version="1.0" encoding="utf-8"?>
<!-- Generated by IcoMoon.io -->
<!DOCTYPE svg PUBLIC "-//W3C//DTD SVG 1.1//EN" "http://www.w3.org/Graphics/SVG/1.1/DTD/svg11.dtd">
<svg version="1.1" xmlns="http://www.w3.org/2000/svg" xmlns:xlink="http://www.w3.org/1999/xlink" width="33" height="32" viewBox="0 0 33 32">
<path d="M0.796 32c-0.199 0-0.408-0.080-0.567-0.229-0.308-0.308-0.308-0.816 0-1.124l16.448-16.448-3.045-3.065-0.468 0.468c-0.308 0.308-0.816 0.308-1.124 0s-0.308-0.816 0-1.124l0.468-0.468-1.96-1.95c-0.308-0.308-0.308-0.816 0-1.124l6.697-6.697c0.308-0.308 0.816-0.308 1.124 0l1.96 1.95 0.468-0.468c0.308-0.308 0.816-0.308 1.124 0s0.308 0.816 0 1.124l-0.468 0.468 7.244 7.244 0.468-0.468c0.308-0.308 0.816-0.308 1.124 0s0.308 0.816 0 1.124l-0.468 0.468 1.95 1.95c0.149 0.149 0.229 0.348 0.229 0.567s-0.080 0.418-0.229 0.567l-6.697 6.687c-0.308 0.308-0.816 0.308-1.124 0l-1.96-1.95-0.468 0.468c-0.308 0.308-0.816 0.308-1.124 0s-0.308-0.816 0-1.124l0.468-0.468-3.055-3.055-16.448 16.448c-0.159 0.159-0.368 0.229-0.567 0.229zM23.114 18.378l1.393 1.393 5.572-5.572-1.393-1.393-5.572 5.572zM18.378 13.642l3.612 3.612 5.572-5.572-7.244-7.244-5.572 5.572 3.612 3.612c0.010 0 0.010 0.010 0.020 0.020 0-0.010 0 0 0 0zM12.239 7.493l1.393 1.393 5.572-5.572-1.393-1.393-5.572 5.572zM31.891 31.015h-17.662c-0.438 0-0.796-0.358-0.796-0.796s0.358-0.796 0.796-0.796h17.662c0.438 0 0.796 0.358 0.796 0.796s-0.358 0.796-0.796 0.796zM27.92 27.532h-9.711c-0.438 0-0.796-0.358-0.796-0.796s0.358-0.796 0.796-0.796h9.711c0.438 0 0.796 0.358 0.796 0.796s-0.358 0.796-0.796 0.796z"></path>
</svg>
