<?xml version="1.0" encoding="utf-8"?>
<!-- Generated by IcoMoon.io -->
<!DOCTYPE svg PUBLIC "-//W3C//DTD SVG 1.1//EN" "http://www.w3.org/Graphics/SVG/1.1/DTD/svg11.dtd">
<svg version="1.1" xmlns="http://www.w3.org/2000/svg" xmlns:xlink="http://www.w3.org/1999/xlink" width="29" height="32" viewBox="0 0 29 32">
<path d="M24.343 32h-3.731c-0.431 0-0.783-0.352-0.783-0.783v-2.987h-10.8v2.987c0 0.431-0.352 0.783-0.783 0.783h-3.731c-0.431 0-0.783-0.352-0.783-0.783v-0.676h-2.947c-0.431 0-0.783-0.352-0.783-0.783v-7.824c0-0.431 0.352-0.783 0.783-0.783h2.947v-0.676c0-0.431 0.353-0.783 0.783-0.783h3.731c0.431 0 0.783 0.352 0.783 0.783v2.987h10.81v-2.987c0-0.431 0.352-0.783 0.783-0.783h3.731c0.431 0 0.783 0.352 0.783 0.783v0.676h2.947c0.431 0 0.783 0.352 0.783 0.783v7.824c0 0.431-0.352 0.783-0.783 0.783h-2.947v0.676c-0.010 0.441-0.362 0.783-0.793 0.783zM21.395 30.433h2.164v-9.185h-2.164v9.185zM5.297 30.433h2.164v-9.185h-2.164v9.185zM25.126 28.974h2.164v-6.257h-2.164v6.257zM1.567 28.974h2.164v-6.257h-2.164v6.257zM9.028 26.673h10.81v-1.645h-10.81v1.645zM12.671 21.875c-0.127 0-0.264-0.029-0.382-0.098-0.372-0.215-0.509-0.695-0.294-1.067 1.4-2.477 3.28-4.573 5.503-6.189-0.969-1.341-2.076-2.565-3.3-3.643-3.035 3.271-7.187 5.474-11.789 6.032 0.098 0.411 0.225 0.823 0.372 1.224 0.147 0.411-0.069 0.852-0.47 0.999-0.411 0.147-0.852-0.069-0.999-0.47-0.548-1.508-0.823-3.094-0.823-4.71-0.010-7.696 6.247-13.954 13.934-13.954 7.696 0 13.954 6.257 13.954 13.954 0 1.39-0.206 2.761-0.617 4.083-0.127 0.411-0.568 0.646-0.979 0.519s-0.646-0.568-0.519-0.979c0.362-1.175 0.539-2.389 0.539-3.623 0-0.48-0.029-0.95-0.078-1.41-2.536 0.294-4.935 1.126-7.070 2.419 0.46 0.734 0.881 1.498 1.263 2.272 0.186 0.392 0.029 0.862-0.362 1.048s-0.862 0.029-1.048-0.362c-0.352-0.725-0.734-1.42-1.155-2.086-2.017 1.479-3.741 3.388-5.013 5.65-0.127 0.245-0.392 0.392-0.666 0.392zM4.945 5.993c-1.812 2.154-2.898 4.935-2.898 7.961 0 0.47 0.029 0.94 0.078 1.41 4.24-0.49 8.049-2.497 10.859-5.483-2.36-1.812-5.082-3.143-8.039-3.887zM15.207 9.694c1.332 1.175 2.536 2.517 3.584 3.956 2.311-1.41 4.916-2.33 7.667-2.663-0.979-3.976-3.887-7.207-7.667-8.636-0.666 2.732-1.909 5.219-3.584 7.344zM6.189 4.71c2.81 0.832 5.474 2.193 7.804 3.985 1.547-1.968 2.683-4.269 3.29-6.796-0.92-0.215-1.88-0.333-2.859-0.333-3.153 0-6.042 1.185-8.235 3.143z"></path>
</svg>
