<?xml version="1.0" encoding="utf-8"?>
<!-- Generated by IcoMoon.io -->
<!DOCTYPE svg PUBLIC "-//W3C//DTD SVG 1.1//EN" "http://www.w3.org/Graphics/SVG/1.1/DTD/svg11.dtd">
<svg version="1.1" xmlns="http://www.w3.org/2000/svg" xmlns:xlink="http://www.w3.org/1999/xlink" width="29" height="32" viewBox="0 0 29 32">
<path d="M28.61 25.445c0.007-0.056 0.014-0.105 0.014-0.162v-1.688c0-0.415-0.232-0.774-0.577-0.964 0.007-0.056 0.014-0.105 0.014-0.162v-1.688c0-0.056-0.007-0.113-0.014-0.162 0.345-0.183 0.577-0.549 0.577-0.964v-1.688c0-0.598-0.492-1.090-1.090-1.090h-7.349c0-0.014 0-0.021 0-0.035v-1.688c0-0.415-0.232-0.774-0.577-0.964 0.007-0.056 0.014-0.105 0.014-0.162v-1.688c0-0.415-0.232-0.774-0.577-0.964 0.007-0.056 0.014-0.105 0.014-0.162v-1.688c0-0.056-0.007-0.113-0.014-0.162 0.345-0.183 0.577-0.549 0.577-0.964v-1.688c0-0.056-0.007-0.113-0.014-0.162 0.345-0.183 0.577-0.549 0.577-0.964v-1.688c0-0.415-0.232-0.774-0.577-0.964 0.007-0.056 0.014-0.106 0.014-0.162v-1.688c0-0.598-0.492-1.090-1.090-1.090h-7.877c-0.598 0-1.090 0.492-1.090 1.090v1.688c0 0.415 0.232 0.774 0.577 0.964-0.007 0.056-0.014 0.106-0.014 0.162v1.688c0 0.056 0.007 0.113 0.014 0.162-0.345 0.183-0.577 0.549-0.577 0.964v1.688c0 0.056 0.007 0.113 0.014 0.162-0.345 0.183-0.577 0.549-0.577 0.964v1.688c0 0.014 0 0.021 0 0.035h-7.349c-0.598 0-1.090 0.492-1.090 1.090v1.688c0 0.415 0.232 0.774 0.577 0.964-0.007 0.056-0.014 0.105-0.014 0.162v1.688c0 0.056 0.007 0.113 0.014 0.162-0.345 0.183-0.577 0.549-0.577 0.964v1.688c0 0.056 0.007 0.113 0.014 0.162-0.345 0.183-0.577 0.549-0.577 0.964v1.688c0 0.415 0.232 0.774 0.577 0.964-0.007 0.056-0.014 0.105-0.014 0.162v1.688c0 0.415 0.232 0.774 0.577 0.964-0.007 0.056-0.014 0.105-0.014 0.162v1.688c0 0.056 0.007 0.113 0.014 0.162-0.345 0.183-0.577 0.549-0.577 0.964v1.688c0 0.598 0.492 1.090 1.090 1.090h7.877c0.204 0 0.401-0.056 0.563-0.155 0.162 0.098 0.359 0.155 0.563 0.155h16.879c0.598 0 1.090-0.492 1.090-1.090v-1.688c0-0.056-0.007-0.113-0.014-0.162 0.345-0.183 0.577-0.549 0.577-0.964v-1.688c0-0.415-0.232-0.774-0.577-0.964zM28.097 26.374c0.021 0 0.035 0.014 0.035 0.035v1.688c0 0.021-0.014 0.035-0.035 0.035h-3.545c0.091-0.373 0.134-0.76 0.134-1.16 0-0.204-0.014-0.401-0.035-0.598h3.446zM19.657 30.945c-2.194 0-3.974-1.779-3.974-3.974s1.779-3.974 3.974-3.974 3.974 1.779 3.974 3.974-1.779 3.974-3.974 3.974zM11.182 26.971c0-2.194 1.779-3.974 3.974-3.974 0.408 0 0.816 0.063 1.203 0.183-0.345 0.302-0.647 0.647-0.9 1.027-0.098-0.014-0.197-0.014-0.302-0.014-1.533 0-2.778 1.245-2.778 2.778s1.245 2.778 2.778 2.778c0.098 0 0.204-0.007 0.302-0.014 0.253 0.38 0.556 0.724 0.9 1.027-0.387 0.12-0.795 0.183-1.203 0.183-2.194 0-3.974-1.779-3.974-3.974zM9.53 28.132h-7.314c-0.021 0-0.035-0.014-0.035-0.035v-1.688c0-0.021 0.014-0.035 0.035-0.035h7.947c-0.021 0.197-0.035 0.394-0.035 0.598 0 0.401 0.049 0.788 0.134 1.16h-0.731zM1.653 25.319c-0.021 0-0.035-0.014-0.035-0.035v-1.688c0-0.021 0.014-0.035 0.035-0.035h7.877c0.021 0 0.035 0.014 0.035 0.035v1.688c0 0.021-0.014 0.035-0.035 0.035h-7.877zM1.090 22.506c-0.021 0-0.035-0.014-0.035-0.035v-1.688c0-0.021 0.014-0.035 0.035-0.035h7.877c0.021 0 0.035 0.014 0.035 0.035v1.688c0 0.021-0.014 0.035-0.035 0.035h-7.877zM1.618 19.657v-1.688c0-0.021 0.014-0.035 0.035-0.035h7.877c0.021 0 0.035 0.014 0.035 0.035v1.688c0 0.021-0.014 0.035-0.035 0.035h-7.877c-0.021 0-0.035-0.014-0.035-0.035zM2.18 16.844v-1.688c0-0.021 0.014-0.035 0.035-0.035h7.877c0.021 0 0.035 0.014 0.035 0.035v1.688c0 0.021-0.014 0.035-0.035 0.035h-7.877c-0.021 0-0.035-0.014-0.035-0.035zM10.057 9.53c0-0.021 0.014-0.035 0.035-0.035h7.877c0.021 0 0.035 0.014 0.035 0.035v1.688c0 0.021-0.014 0.035-0.035 0.035h-7.877c-0.021 0-0.035-0.014-0.035-0.035v-1.688zM10.62 8.404v-1.688c0-0.021 0.014-0.035 0.035-0.035h7.877c0.021 0 0.035 0.014 0.035 0.035v1.688c0 0.021-0.014 0.035-0.035 0.035h-7.877c-0.021 0-0.035-0.014-0.035-0.035zM11.182 5.591v-1.688c0-0.021 0.014-0.035 0.035-0.035h7.877c0.021 0 0.035 0.014 0.035 0.035v1.688c0 0.021-0.014 0.035-0.035 0.035h-7.877c-0.021 0-0.035-0.014-0.035-0.035zM18.532 12.308c0.021 0 0.035 0.014 0.035 0.035v1.688c0 0.021-0.014 0.035-0.035 0.035h-7.877c-0.021 0-0.035-0.014-0.035-0.035v-1.688c0-0.021 0.014-0.035 0.035-0.035h7.877zM19.095 15.121c0.021 0 0.035 0.014 0.035 0.035v1.688c0 0.021-0.014 0.035-0.035 0.035h-7.877c-0.021 0-0.035-0.014-0.035-0.035v-1.688c0-0.021 0.014-0.035 0.035-0.035h7.877zM27.007 20.782v1.688c0 0.021-0.014 0.035-0.035 0.035h-5.007c-0.689-0.359-1.477-0.563-2.307-0.563-0.204 0-0.401 0.014-0.598 0.035v-1.196c0-0.021 0.014-0.035 0.035-0.035h7.877c0.021 0 0.035 0.014 0.035 0.035zM27.534 23.56c0.021 0 0.035 0.014 0.035 0.035v1.688c0 0.021-0.014 0.035-0.035 0.035h-3.13c-0.232-0.661-0.591-1.259-1.055-1.758h4.185zM17.407 22.477c-0.696-0.352-1.47-0.535-2.251-0.535-0.83 0-1.618 0.204-2.307 0.563h-2.757c-0.021 0-0.035-0.014-0.035-0.035v-1.688c0-0.021 0.014-0.035 0.035-0.035h7.877c0.021 0 0.035 0.014 0.035 0.035v1.442c-0.204 0.070-0.401 0.155-0.598 0.253zM18.567 17.969v1.688c0 0.021-0.014 0.035-0.035 0.035h-7.877c-0.021 0-0.035-0.014-0.035-0.035v-1.688c0-0.021 0.014-0.035 0.035-0.035h7.877c0.021 0 0.035 0.014 0.035 0.035zM10.62 24.805v-1.21c0-0.014 0-0.021 0-0.035h0.844c-0.338 0.366-0.626 0.788-0.844 1.245zM14.931 28.68c-0.844-0.113-1.498-0.837-1.498-1.709s0.654-1.596 1.498-1.709c-0.19 0.535-0.302 1.111-0.302 1.709s0.105 1.175 0.302 1.709zM27.569 17.969v1.688c0 0.021-0.014 0.035-0.035 0.035h-7.877c-0.021 0-0.035-0.014-0.035-0.035v-1.688c0-0.021 0.014-0.035 0.035-0.035h7.877c0.021 0 0.035 0.014 0.035 0.035v0zM10.62 1.090c0-0.021 0.014-0.035 0.035-0.035h7.877c0.021 0 0.035 0.014 0.035 0.035v1.688c0 0.021-0.014 0.035-0.035 0.035h-7.877c-0.021 0-0.035-0.014-0.035-0.035v-1.688zM1.618 12.343c0-0.021 0.014-0.035 0.035-0.035h7.877c0.021 0 0.035 0.014 0.035 0.035v1.688c0 0.021-0.014 0.035-0.035 0.035h-7.877c-0.021 0-0.035-0.014-0.035-0.035v-1.688zM9.53 30.945h-7.877c-0.021 0-0.035-0.014-0.035-0.035v-1.688c0-0.021 0.014-0.035 0.035-0.035h7.877c0.021 0 0.035 0.014 0.035 0.035v1.688c0 0.021-0.014 0.035-0.035 0.035zM10.655 30.945c-0.021 0-0.035-0.014-0.035-0.035v-1.688c0-0.014 0-0.021 0-0.035h0.028c0.338 0.689 0.837 1.294 1.435 1.758h-1.428zM27.569 30.91c0 0.021-0.014 0.035-0.035 0.035h-4.804c0.605-0.464 1.097-1.069 1.435-1.758h3.362c0.021 0 0.035 0.014 0.035 0.035v1.688z"></path>
<path d="M19.657 24.193c-1.533 0-2.778 1.245-2.778 2.778s1.245 2.778 2.778 2.778 2.778-1.245 2.778-2.778-1.245-2.778-2.778-2.778zM19.657 28.695c-0.949 0-1.723-0.774-1.723-1.723s0.774-1.723 1.723-1.723 1.723 0.774 1.723 1.723-0.774 1.723-1.723 1.723z"></path>
</svg>
