<?xml version="1.0" encoding="utf-8"?>
<!-- Generated by IcoMoon.io -->
<!DOCTYPE svg PUBLIC "-//W3C//DTD SVG 1.1//EN" "http://www.w3.org/Graphics/SVG/1.1/DTD/svg11.dtd">
<svg version="1.1" xmlns="http://www.w3.org/2000/svg" xmlns:xlink="http://www.w3.org/1999/xlink" width="36" height="32" viewBox="0 0 36 32">
<path d="M7.1 12.3h-6.136c-0.531 0-0.965-0.434-0.965-0.965s0.434-0.965 0.965-0.965h6.666c0.328 0 0.637 0.174 0.82 0.453l1.92 3.049 2.962-7.554c0.145-0.376 0.521-0.627 0.936-0.608 0.405 0.010 0.762 0.289 0.888 0.675l2.817 8.962 1.023-4.235c0.106-0.434 0.492-0.743 0.936-0.743h4.785c0.531 0 0.965 0.434 0.965 0.965s-0.434 0.965-0.965 0.965h-4.033l-1.659 6.879c-0.106 0.424-0.473 0.724-0.907 0.743-0.010 0-0.019 0-0.029 0-0.424 0-0.791-0.27-0.916-0.675l-3.039-9.676-2.653 6.782c-0.135 0.338-0.444 0.579-0.81 0.608-0.367 0.039-0.714-0.135-0.907-0.444l-2.663-4.216zM33.92 3.106c-2.074-2.007-4.785-3.106-7.631-3.106-2.499 0-4.891 0.849-6.83 2.402-1.929-1.553-4.322-2.402-6.821-2.402-2.846 0-5.557 1.1-7.631 3.106-1.235 1.196-2.016 2.624-2.344 4.235-0.106 0.521 0.232 1.032 0.762 1.138 0.521 0.106 1.032-0.232 1.138-0.762 0.251-1.244 0.83-2.296 1.794-3.222 1.708-1.65 3.936-2.566 6.28-2.566 2.306 0 4.486 0.868 6.165 2.45 0.376 0.347 0.955 0.347 1.322 0 1.679-1.582 3.869-2.45 6.165-2.45 2.344 0 4.573 0.917 6.29 2.566 1.312 1.273 1.949 2.807 1.92 4.689-0.068 5.489-5.837 12.744-11.21 17.703-0.28 0.251-0.54 0.502-0.781 0.724-1.447 1.341-2.441 2.267-3.049 2.441-0.608-0.183-1.601-1.1-3.049-2.45-0.241-0.232-0.502-0.473-0.781-0.724-1.968-1.814-6.821-6.589-9.483-11.799-0.241-0.473-0.82-0.666-1.302-0.424s-0.666 0.82-0.424 1.302c2.807 5.489 7.853 10.458 9.898 12.339 0.28 0.251 0.531 0.492 0.781 0.724 2.016 1.872 3.029 2.817 4.235 2.971 0.039 0.010 0.087 0.010 0.125 0.010s0.087 0 0.125-0.010c1.206-0.154 2.219-1.1 4.235-2.971 0.241-0.222 0.502-0.463 0.781-0.724 2.749-2.537 11.741-11.413 11.828-19.102 0.029-2.393-0.82-4.447-2.508-6.087z"></path>
</svg>
