<?xml version="1.0" encoding="utf-8"?>
<!-- Generated by IcoMoon.io -->
<!DOCTYPE svg PUBLIC "-//W3C//DTD SVG 1.1//EN" "http://www.w3.org/Graphics/SVG/1.1/DTD/svg11.dtd">
<svg version="1.1" xmlns="http://www.w3.org/2000/svg" xmlns:xlink="http://www.w3.org/1999/xlink" width="32" height="32" viewBox="0 0 32 32">
<path d="M31.156 32h-8.659c-0.464 0-0.844-0.38-0.844-0.844s0.38-0.844 0.844-0.844h7.815v-28.625h-16.517v2.974c0 0.464-0.38 0.844-0.844 0.844s-0.844-0.38-0.844-0.844v-3.818c0-0.464 0.38-0.844 0.844-0.844h18.204c0.464 0 0.844 0.38 0.844 0.844v30.312c0 0.464-0.38 0.844-0.844 0.844zM12.952 32c-0.011 0-0.011 0-0.021 0h-6.033c-0.464 0-0.844-0.38-0.844-0.844s0.38-0.844 0.844-0.844h5.21v-3.871h-11.264c-0.464 0-0.844-0.38-0.844-0.844v-17.329c0-0.464 0.38-0.844 0.844-0.844h24.216c0.464 0 0.844 0.38 0.844 0.844v17.318c0 0.464-0.38 0.844-0.844 0.844h-11.264v3.871h5.21c0.464 0 0.844 0.38 0.844 0.844s-0.38 0.844-0.844 0.844h-6.033c-0.011 0.011-0.021 0.011-0.021 0.011zM12.952 24.744h11.264v-15.631h-22.529v15.631h11.264zM19.586 19.365h-13.268c-0.464 0-0.844-0.38-0.844-0.844s0.38-0.844 0.844-0.844h13.268c0.464 0 0.844 0.38 0.844 0.844s-0.38 0.844-0.844 0.844zM16.601 16.19h-7.299c-0.464 0-0.844-0.38-0.844-0.844s0.38-0.844 0.844-0.844h7.299c0.464 0 0.844 0.38 0.844 0.844s-0.38 0.844-0.844 0.844z"></path>
</svg>
