<?xml version="1.0" encoding="utf-8"?>
<!-- Generated by IcoMoon.io -->
<!DOCTYPE svg PUBLIC "-//W3C//DTD SVG 1.1//EN" "http://www.w3.org/Graphics/SVG/1.1/DTD/svg11.dtd">
<svg version="1.1" xmlns="http://www.w3.org/2000/svg" xmlns:xlink="http://www.w3.org/1999/xlink" width="27" height="32" viewBox="0 0 27 32">
<path d="M26.545 5.359c-0.009-0.425-0.312-0.79-0.738-0.846-1.974-0.273-3.923-0.742-5.832-1.441-1.901-0.694-4.005-1.666-6.271-2.947-0.286-0.161-0.56-0.165-0.846 0-2.252 1.28-4.34 2.248-6.258 2.947-1.909 0.699-3.858 1.172-5.819 1.441-0.425 0.056-0.72 0.425-0.768 0.846-0.187 8.046 1.575 14.624 5.268 19.741 2.014 2.786 4.531 5.047 7.573 6.774 0.234 0.174 0.603 0.161 0.877 0 3.020-1.753 5.533-4.001 7.542-6.774 3.706-5.112 5.451-11.695 5.273-19.741zM19.867 24.115c-1.744 2.413-3.936 4.422-6.587 6.036-2.651-1.614-4.852-3.619-6.587-6.036-3.359-4.687-4.999-10.68-4.938-17.988 1.849-0.299 3.684-0.798 5.52-1.475 1.836-0.673 3.841-1.601 6.006-2.777 2.165 1.176 4.157 2.1 5.989 2.777 1.836 0.673 3.684 1.176 5.537 1.475 0.061 7.356-1.588 13.357-4.938 17.988z"></path>
</svg>
