<?xml version="1.0" encoding="utf-8"?>
<!-- Generated by IcoMoon.io -->
<!DOCTYPE svg PUBLIC "-//W3C//DTD SVG 1.1//EN" "http://www.w3.org/Graphics/SVG/1.1/DTD/svg11.dtd">
<svg version="1.1" xmlns="http://www.w3.org/2000/svg" xmlns:xlink="http://www.w3.org/1999/xlink" width="36" height="32" viewBox="0 0 36 32">
<path d="M35.646 32h-34.874c-0.424 0-0.772-0.347-0.772-0.772s0.347-0.772 0.772-0.772h34.874c0.424 0 0.772 0.347 0.772 0.772s-0.338 0.772-0.772 0.772zM34.237 28.489c-0.424 0-0.772-0.347-0.772-0.772v-17.051h-19.212c-0.424 0-0.772-0.347-0.772-0.772s0.347-0.772 0.772-0.772h19.983c0.424 0 0.772 0.347 0.772 0.772v17.823c0 0.424-0.347 0.772-0.772 0.772zM7.436 28.489c-0.424 0-0.772-0.347-0.772-0.772v-12.644c0-0.424 0.347-0.772 0.772-0.772s0.772 0.347 0.772 0.772v12.644c0 0.424-0.347 0.772-0.772 0.772zM30.958 26.956h-3.144c-0.424 0-0.772-0.347-0.772-0.772v-4.485c0-0.424 0.347-0.772 0.772-0.772h3.144c0.424 0 0.772 0.347 0.772 0.772v4.485c0 0.424-0.347 0.772-0.772 0.772zM28.586 25.413h1.601v-2.942h-1.601v2.942zM24.661 26.956h-3.144c-0.424 0-0.772-0.347-0.772-0.772v-4.485c0-0.424 0.347-0.772 0.772-0.772h3.144c0.424 0 0.772 0.347 0.772 0.772v4.485c0 0.424-0.347 0.772-0.772 0.772zM22.288 25.413h1.601v-2.942h-1.601v2.942zM18.363 26.956h-3.144c-0.424 0-0.772-0.347-0.772-0.772v-4.485c0-0.424 0.347-0.772 0.772-0.772h3.144c0.424 0 0.772 0.347 0.772 0.772v4.485c0 0.424-0.347 0.772-0.772 0.772zM15.99 25.413h1.601v-2.942h-1.601v2.942zM4.022 23.773c-0.251 0-0.502-0.125-0.646-0.347-0.482-0.733-0.752-1.572-0.791-2.44-1.562-0.839-2.585-2.498-2.585-4.292s1.022-3.453 2.594-4.292c0.106-2.575 2.237-4.639 4.851-4.639 2.604 0 4.735 2.064 4.851 4.639 1.572 0.839 2.594 2.498 2.594 4.292s-1.022 3.453-2.594 4.292c-0.039 0.868-0.309 1.697-0.781 2.43-0.231 0.357-0.714 0.453-1.071 0.222s-0.453-0.714-0.222-1.071c0.347-0.54 0.54-1.157 0.54-1.794 0-0.077 0-0.145-0.010-0.231-0.019-0.338 0.174-0.646 0.492-0.772 1.263-0.492 2.102-1.736 2.102-3.077s-0.849-2.585-2.102-3.077c-0.309-0.125-0.511-0.434-0.492-0.772 0.010-0.077 0.010-0.154 0.010-0.231 0-1.823-1.485-3.308-3.308-3.308s-3.308 1.485-3.308 3.308c0 0.077 0 0.154 0.010 0.231 0.019 0.338-0.174 0.646-0.492 0.772-1.263 0.492-2.102 1.736-2.102 3.077 0 1.35 0.849 2.585 2.102 3.077 0.309 0.125 0.511 0.434 0.492 0.772-0.010 0.077-0.010 0.154-0.010 0.231 0 0.646 0.183 1.263 0.54 1.803 0.231 0.357 0.135 0.839-0.222 1.071-0.145 0.077-0.299 0.125-0.444 0.125zM30.958 18.884h-3.144c-0.424 0-0.772-0.347-0.772-0.772v-4.485c0-0.424 0.347-0.772 0.772-0.772h3.144c0.424 0 0.772 0.347 0.772 0.772v4.485c0 0.424-0.347 0.772-0.772 0.772zM28.586 17.341h1.601v-2.942h-1.601v2.942zM24.661 18.884h-3.144c-0.424 0-0.772-0.347-0.772-0.772v-4.485c0-0.424 0.347-0.772 0.772-0.772h3.144c0.424 0 0.772 0.347 0.772 0.772v4.485c0 0.424-0.347 0.772-0.772 0.772zM22.288 17.341h1.601v-2.942h-1.601v2.942zM18.363 18.884h-1.466c-0.424 0-0.772-0.347-0.772-0.772s0.347-0.772 0.772-0.772h0.694v-2.942h-0.694c-0.424 0-0.772-0.347-0.772-0.772s0.347-0.772 0.772-0.772h1.466c0.424 0 0.772 0.347 0.772 0.772v4.485c0 0.424-0.347 0.772-0.772 0.772zM31.971 7.725c-0.424 0-0.772-0.347-0.772-0.772v-5.41h-10.966v5.41c0 0.424-0.347 0.772-0.772 0.772s-0.772-0.347-0.772-0.772v-6.182c0-0.424 0.347-0.772 0.772-0.772h12.509c0.424 0 0.772 0.347 0.772 0.772v6.182c0 0.434-0.347 0.772-0.772 0.772zM28.759 6.471c-0.424 0-0.772-0.347-0.772-0.772v-1.495c0-0.424 0.347-0.772 0.772-0.772s0.772 0.347 0.772 0.772v1.505c0 0.415-0.347 0.762-0.772 0.762zM25.712 6.471c-0.424 0-0.772-0.347-0.772-0.772v-1.495c0-0.424 0.347-0.772 0.772-0.772s0.772 0.347 0.772 0.772v1.505c0 0.415-0.347 0.762-0.772 0.762zM22.674 6.471c-0.424 0-0.772-0.347-0.772-0.772v-1.495c0-0.424 0.347-0.772 0.772-0.772s0.772 0.347 0.772 0.772v1.505c0 0.415-0.347 0.762-0.772 0.762z"></path>
</svg>
