<?xml version="1.0" encoding="utf-8"?>
<!-- Generated by IcoMoon.io -->
<!DOCTYPE svg PUBLIC "-//W3C//DTD SVG 1.1//EN" "http://www.w3.org/Graphics/SVG/1.1/DTD/svg11.dtd">
<svg version="1.1" xmlns="http://www.w3.org/2000/svg" xmlns:xlink="http://www.w3.org/1999/xlink" width="29" height="32" viewBox="0 0 29 32">
<path d="M18.044 23.882c2.697-4.473 6.106-10.762 6.106-13.995 0-5.453-4.434-9.887-9.887-9.887s-9.887 4.434-9.887 9.887c0 3.233 3.409 9.522 6.106 13.995-3.2 0.242-10.482 1.11-10.482 3.99 0 2.834 7.393 4.127 14.269 4.127 6.87 0 14.269-1.293 14.269-4.127-0.007-2.88-7.295-3.749-10.495-3.99v0zM5.74 9.887c0-4.702 3.827-8.529 8.522-8.529 4.702 0 8.529 3.827 8.529 8.529 0 4.108-6.544 14.413-8.529 17.443-1.985-3.030-8.522-13.335-8.522-17.443v0zM14.263 30.635c-8.353 0-12.905-1.829-12.905-2.769 0-0.725 3.004-2.286 9.927-2.684 1.3 2.096 2.286 3.579 2.416 3.755 0.176 0.235 0.692 0.516 1.13 0 0.137-0.163 1.117-1.659 2.416-3.755 6.922 0.398 9.927 1.953 9.927 2.684-0.007 0.947-4.558 2.769-12.911 2.769v0z"></path>
<path d="M18.567 9.887c0-2.377-1.927-4.304-4.304-4.304s-4.304 1.927-4.304 4.304 1.927 4.304 4.304 4.304 4.304-1.927 4.304-4.304zM11.318 9.887c0-1.626 1.319-2.945 2.945-2.945s2.945 1.319 2.945 2.945-1.319 2.945-2.945 2.945-2.945-1.319-2.945-2.945z"></path>
</svg>
