<?xml version="1.0" encoding="utf-8"?>
<!-- Generated by IcoMoon.io -->
<!DOCTYPE svg PUBLIC "-//W3C//DTD SVG 1.1//EN" "http://www.w3.org/Graphics/SVG/1.1/DTD/svg11.dtd">
<svg version="1.1" xmlns="http://www.w3.org/2000/svg" xmlns:xlink="http://www.w3.org/1999/xlink" width="34" height="32" viewBox="0 0 34 32">
<path d="M32.049 21.612v-0.904h1.002c0.403 0 0.737-0.334 0.737-0.737v-3.705c0-0.403-0.334-0.737-0.737-0.737h-1.002v-5.435c0-0.403-0.334-0.737-0.737-0.737h-12.727l-2.457-5.219 10.457 4.658c0.098 0.039 0.197 0.069 0.295 0.069 0.285 0 0.55-0.167 0.678-0.432 0.167-0.373 0-0.806-0.373-0.973l-12.020-5.366-0.786-1.671c-0.118-0.256-0.383-0.423-0.668-0.423s-0.541 0.167-0.668 0.423l-0.806 1.72-11.882 7.322c0 0-0.010 0-0.010 0.010-0.010 0.010-0.020 0.020-0.039 0.029-0.010 0.010-0.020 0.010-0.029 0.020s-0.020 0.020-0.029 0.020c-0.010 0.010-0.020 0.020-0.029 0.029s-0.010 0.020-0.020 0.020-0.020 0.020-0.029 0.029c-0.010 0.010-0.010 0.020-0.020 0.020-0.010 0.010-0.020 0.020-0.020 0.029-0.010 0.010-0.010 0.020-0.020 0.029 0 0.010-0.010 0.020-0.010 0.029-0.010 0.010-0.010 0.020-0.020 0.039 0 0.010-0.010 0.020-0.010 0.029-0.010 0.010-0.010 0.029-0.020 0.039 0 0.010-0.010 0.020-0.010 0.029s-0.010 0.029-0.010 0.039c0 0.010-0.010 0.020-0.010 0.029s-0.010 0.029-0.010 0.039c0 0.010 0 0.020-0.010 0.039 0 0.010 0 0.020 0 0.029s0 0.029 0 0.039c0 0 0 0.010 0 0.010v2.624c0 0.403 0.334 0.737 0.737 0.737s0.737-0.334 0.737-0.737v-1.887h16.639c0 0 0 0 0 0s0 0 0 0h12.462v1.15h-24.55c-0.403 0-0.737 0.334-0.737 0.737s0.334 0.737 0.737 0.737h2.545v17.808c0 0 0 0 0 0.010 0 0.020 0 0.029 0 0.049 0 0.010 0 0.020 0 0.020 0 0.020 0 0.029 0.010 0.049 0 0.010 0 0.020 0 0.029s0.010 0.029 0.010 0.039c0 0.010 0.010 0.020 0.010 0.029s0.010 0.020 0.010 0.029c0 0.010 0.010 0.029 0.010 0.039s0.010 0.010 0.010 0.020c0.010 0.020 0.010 0.029 0.020 0.039 0 0.010 0.010 0.010 0.010 0.020 0.010 0.010 0.020 0.029 0.029 0.039 0 0 0 0 0 0s0.010 0.010 0.010 0.010c0.010 0.020 0.029 0.029 0.039 0.049 0.010 0.010 0.010 0.010 0.020 0.020s0.029 0.029 0.039 0.039c0.010 0.010 0.010 0.010 0.020 0.020 0.020 0.020 0.039 0.029 0.059 0.049 0 0 0.010 0 0.010 0.010 0.020 0.010 0.039 0.020 0.059 0.039 0.010 0 0.010 0.010 0.020 0.010 0.020 0.010 0.039 0.020 0.049 0.020s0.020 0.010 0.020 0.010c0.020 0.010 0.039 0.010 0.059 0.020 0.010 0 0.010 0 0.020 0.010 0.020 0 0.039 0.010 0.059 0.010 0.010 0 0.010 0 0.020 0 0.029 0 0.049 0 0.079 0 0 0 0 0 0 0s0 0 0 0h8.806c0.403 0 0.737-0.334 0.737-0.737v-17.808h11.725v2.084h-0.953c-0.403 0-0.737 0.334-0.737 0.737v3.705c0 0.403 0.334 0.737 0.737 0.737h1.002v1.543c0 0.403 0.334 0.737 0.737 0.737 0.747 0 1.346 0.599 1.346 1.346s-0.599 1.346-1.346 1.346-1.346-0.599-1.346-1.346c0-0.403-0.334-0.737-0.737-0.737s-0.737 0.334-0.737 0.737c0 1.553 1.268 2.821 2.821 2.821s2.821-1.268 2.821-2.821c-0.010-1.307-0.894-2.398-2.093-2.722zM16.953 9.356h-6.486l3.243-6.889 3.243 6.889zM8.845 9.356h-5.504l7.754-4.776-2.251 4.776zM17.376 24.344h-5.74l5.74-4.029v4.029zM10.044 23.656v-4.029h5.74l-5.74 4.029zM10.044 25.818h5.74l-5.74 4.029v-4.029zM15.784 13.455l-3.391 2.378c-0.334 0.236-0.413 0.698-0.177 1.022 0.147 0.206 0.373 0.314 0.6 0.314 0.147 0 0.295-0.039 0.423-0.138l4.147-2.909v4.029h-7.332v-4.708h5.73zM11.646 30.526l5.74-4.029v4.029h-5.74zM30.319 17.002h2.005v2.231h-2.005v-2.231z"></path>
</svg>
