<?xml version="1.0" encoding="utf-8"?>
<!-- Generated by IcoMoon.io -->
<!DOCTYPE svg PUBLIC "-//W3C//DTD SVG 1.1//EN" "http://www.w3.org/Graphics/SVG/1.1/DTD/svg11.dtd">
<svg version="1.1" xmlns="http://www.w3.org/2000/svg" xmlns:xlink="http://www.w3.org/1999/xlink" width="44" height="32" viewBox="0 0 44 32">
<path d="M43.248 32h-42.183c-0.586 0-1.065-0.479-1.065-1.065v-0.599c0-0.013 0-0.027 0-0.053v-29.218c0-0.586 0.479-1.065 1.065-1.065h42.183c0.586 0 1.065 0.479 1.065 1.065v29.87c0 0.586-0.479 1.065-1.065 1.065zM24.173 29.87h18.010v-27.74h-18.010v27.74zM2.396 29.87h19.381l-0.852-2.077c-1.291-3.195-2.769-5.032-4.686-5.777l-3.301 4.526c-0.2 0.28-0.519 0.439-0.865 0.439s-0.666-0.16-0.865-0.439l-3.301-4.526c-1.917 0.745-3.394 2.582-4.686 5.777l-0.825 2.077zM10.13 19.501h3.927c4.233 0 6.562 2.809 8 5.577v-22.948h-19.927v22.948c1.424-2.769 3.767-5.577 8-5.577zM10.29 21.631l1.81 2.476 1.81-2.476h-3.621zM37.617 24.972h-1.158c-0.586 0-1.065-0.479-1.065-1.065s0.479-1.065 1.065-1.065h1.158c0.586 0 1.065 0.479 1.065 1.065s-0.479 1.065-1.065 1.065zM32.479 24.972h-3.155c-0.586 0-1.065-0.479-1.065-1.065s0.479-1.065 1.065-1.065h3.155c0.586 0 1.065 0.479 1.065 1.065s-0.479 1.065-1.065 1.065zM12.087 17.517c-3.248 0-5.897-2.649-5.897-5.897s2.649-5.897 5.897-5.897 5.897 2.649 5.897 5.897c0 3.261-2.649 5.897-5.897 5.897zM12.087 7.867c-2.077 0-3.767 1.691-3.767 3.767s1.691 3.767 3.767 3.767 3.767-1.691 3.767-3.767-1.691-3.767-3.767-3.767zM37.617 13.444h-8.293c-0.586 0-1.065-0.479-1.065-1.065s0.479-1.065 1.065-1.065h8.293c0.586 0 1.065 0.479 1.065 1.065s-0.479 1.065-1.065 1.065zM34.955 9.158h-5.671c-0.586 0-1.065-0.479-1.065-1.065s0.479-1.065 1.065-1.065h5.671c0.586 0 1.065 0.479 1.065 1.065s-0.479 1.065-1.065 1.065z"></path>
</svg>
